<svg width="18" height="17" viewBox="0 0 18 17" fill="none" xmlns="http://www.w3.org/2000/svg">
<path d="M8.73144 0.818037C8.37968 0.850225 8.06649 1.10659 7.98274 1.47722L7.5205 3.51498L5.26138 6.02474C4.98555 6.33058 4.83332 6.72798 4.83332 7.13965V14.8333C4.83332 15.7542 5.57916 16.5 6.49999 16.5H13.1927C13.8102 16.5 14.3693 16.1364 14.6201 15.5723L17.1217 9.94239C17.2609 9.63072 17.3333 9.29284 17.3333 8.95117V8.16667C17.3333 7.25 16.5833 6.5 15.6667 6.5H9.83332C9.83332 6.5 10.6667 4.5244 10.6667 3.05274C10.6667 1.70857 9.80201 1.12028 9.08951 0.86361C8.97055 0.820485 8.84869 0.807308 8.73144 0.818037ZM1.91666 6.5C1.22666 6.5 0.666656 7.06 0.666656 7.75V15.25C0.666656 15.94 1.22666 16.5 1.91666 16.5C2.60666 16.5 3.16666 15.94 3.16666 15.25V7.75C3.16666 7.06 2.60666 6.5 1.91666 6.5Z" fill="#191919" fill-opacity="0.35"/>
</svg>
