<svg width="20" height="10" viewBox="0 0 20 10" fill="none" xmlns="http://www.w3.org/2000/svg">
<path d="M4.99999 0.833336C2.56415 0.833336 0.616184 2.92353 0.852851 5.40853C1.05952 7.5752 3.00236 9.16667 5.17902 9.16667H7.49999C7.95999 9.16667 8.33332 8.79334 8.33332 8.33334C8.33332 7.87334 7.95999 7.5 7.49999 7.5H5.14159C3.78825 7.5 2.57487 6.48597 2.50487 5.13347C2.42904 3.6918 3.57499 2.5 4.99999 2.5H7.49999C7.95999 2.5 8.33332 2.12667 8.33332 1.66667C8.33332 1.20667 7.95999 0.833336 7.49999 0.833336H4.99999ZM12.5 0.833336C12.04 0.833336 11.6667 1.20667 11.6667 1.66667C11.6667 2.12667 12.04 2.5 12.5 2.5H14.8584C16.2117 2.5 17.4251 3.51404 17.4951 4.86654C17.5709 6.30821 16.425 7.5 15 7.5H12.5C12.04 7.5 11.6667 7.87334 11.6667 8.33334C11.6667 8.79334 12.04 9.16667 12.5 9.16667H15C17.4358 9.16667 19.3838 7.07647 19.1471 4.59147C18.9405 2.42481 16.9976 0.833336 14.821 0.833336H12.5ZM6.66665 4.16667C6.20665 4.16667 5.83332 4.54 5.83332 5C5.83332 5.46 6.20665 5.83334 6.66665 5.83334H13.3333C13.7933 5.83334 14.1667 5.46 14.1667 5C14.1667 4.54 13.7933 4.16667 13.3333 4.16667H6.66665Z" fill="#191919" fill-opacity="0.35"/>
</svg>
