<svg width="17" height="17" viewBox="0 0 17 17" fill="none" xmlns="http://www.w3.org/2000/svg">
<path d="M13.9765 0.666687C13.3734 0.666687 12.7703 0.896374 12.3098 1.35679L11.3333 2.33335L14.6666 5.66669L15.6432 4.69012C16.5632 3.77012 16.5632 2.27762 15.6432 1.35679C15.1828 0.896374 14.5796 0.666687 13.9765 0.666687ZM10.0833 3.58335L2.16661 11.5C2.16661 11.5 3.00411 11.5042 3.41661 11.9167C3.82911 12.3292 3.82025 13.1537 3.82025 13.1537C3.82025 13.1537 4.66994 13.17 5.08327 13.5834C5.49661 13.9967 5.49994 14.8334 5.49994 14.8334L13.4166 6.91669L10.0833 3.58335ZM1.05821 13.1667L0.511335 16.0866C0.467168 16.3249 0.67502 16.5328 0.913353 16.4886L3.83327 15.9418L1.05821 13.1667Z" fill="white"/>
</svg>
