<svg width="18" height="17" viewBox="0 0 18 17" fill="none" xmlns="http://www.w3.org/2000/svg">
<path d="M15.6659 0.5H2.34169C1.42502 0.5 0.674187 1.25 0.674187 2.16667L0.666687 12.1658C0.666687 13.0867 1.41252 13.8333 2.33335 13.8333H3.58252C3.81252 13.8333 3.99919 14.02 3.99919 14.25V15.9883C3.99919 16.7308 4.89669 17.1025 5.42169 16.5775L7.92169 14.0775C8.07835 13.9208 8.29002 13.8333 8.51085 13.8333H15.6659C16.5825 13.8333 17.3325 13.0833 17.3325 12.1667V2.16667C17.3325 1.25 16.5825 0.5 15.6659 0.5ZM12.2525 10.5C11.8425 10.5 11.5167 10.1975 11.4292 9.7975C11.06 8.1225 9.37919 8.005 9.00002 8V9.66667C9.00002 10.0033 8.79752 10.3075 8.48585 10.4367C8.38252 10.4792 8.27419 10.5 8.16669 10.5C7.95002 10.5 7.73669 10.415 7.57752 10.2558L5.07752 7.75583C4.75169 7.43 4.75169 6.90333 5.07752 6.5775L7.57752 4.0775C7.81585 3.83917 8.17335 3.76833 8.48585 3.89667C8.79752 4.02583 9.00002 4.32917 9.00002 4.66667V6.33333C10.2792 6.33333 12.57 7.01917 13.0692 9.4775C13.1759 10.0025 12.7875 10.5 12.2525 10.5Z" fill="#191919" fill-opacity="0.35"/>
</svg>
