<svg width="20" height="12" viewBox="0 0 20 12" fill="none" xmlns="http://www.w3.org/2000/svg">
<path d="M7.50162 0.166664C6.80245 0.166664 6.41391 0.974998 6.85058 1.52083C7.00891 1.71833 7.24828 1.83333 7.50162 1.83333H15C15.46 1.83333 15.8333 2.20666 15.8333 2.66666V7.66667H14.528C14.0463 7.66667 13.7796 8.22345 14.0804 8.59928L16.084 11.1058C16.3823 11.4791 16.951 11.4791 17.2493 11.1058L19.2529 8.59928C19.5538 8.22345 19.287 7.66667 18.8053 7.66667H17.5V2.66666C17.5 1.28583 16.3808 0.166664 15 0.166664H7.50162ZM3.33332 0.614255C3.11666 0.614255 2.89981 0.707537 2.75064 0.894203L0.74706 3.40071C0.446227 3.77655 0.712985 4.33333 1.19465 4.33333H2.49999V9.33333C2.49999 10.7142 3.61916 11.8333 4.99999 11.8333H12.4984C13.1975 11.8333 13.5861 11.025 13.1494 10.4792C12.9911 10.2817 12.7517 10.1667 12.4984 10.1667H4.99999C4.53999 10.1667 4.16666 9.79333 4.16666 9.33333V4.33333H5.472C5.95366 4.33333 6.22042 3.77655 5.91959 3.40071L3.91601 0.894203C3.76684 0.707537 3.54999 0.614255 3.33332 0.614255Z" fill="#191919" fill-opacity="0.35"/>
</svg>
